<svg version="1.0" xmlns="http://www.w3.org/2000/svg" width="1185.333" height="1185.333" viewBox="0 0 889 889"><path d="M510.8 5.9c-7.2 2.8-21.2 10.7-25.7 14.5-8.5 7.1-16.5 19.4-22.6 34.5-4.5 11.4-14.7 51.2-21.9 86.1-12.6 60.7-17.8 81.7-32.1 130.5-16.6 56.3-21.5 81-25.5 129.5-1.1 12.9-2.5 27.8-3 33-.9 9-2.9 34.9-6.5 84-2.3 31.9-2.8 33.6-15.6 60.2-16 33.3-21.6 49.8-24 70-.6 5.8-1.4 11.1-1.8 11.6-.4.6-33.1-3.6-84.6-10.8-46.2-6.5-118.4-16.6-160.5-22.4-42.1-5.9-77.5-10.9-78.7-11.1-3.8-.9-7.5 3.3-8 9.2-.8 7.6.7 8.6 15.3 10.6 21.5 2.9 310.9 44.7 313.1 45.2 2.1.5 2.1.8 2.6 27.7.2 15 .9 28.9 1.5 30.8.5 1.9 2 7.8 3.2 13 2.8 11.7 6.3 20.7 14.6 37.5 18.5 36.9 41.4 68 60.5 82 16.1 11.8 28.3 13.8 57.9 9.5 11.7-1.7 49.4-12 55.2-15.1 15-8 33.1-22.7 43.1-35.2 14.9-18.5 31.9-50.5 39.1-73.6 2.9-9.2 7.6-28.3 7.6-30.9.1-4.7-2.1-4.9 82.6 7.3C884 760.6 885 760.7 886 759.5c1.7-2.1 3.6-17.4 2.4-19.3-.9-1.3-6.6-2.5-27.5-5.4-35-5-217.2-30.5-232-32.5l-11.6-1.5-1.7-25.2c-2.3-32.8-5.9-51.4-15.6-81-3.9-11.9-8-26.2-9.1-31.8-3.1-16.2-15.9-98.6-20-128.8-.5-4.1-2.7-20.1-4.9-35.5-6.1-43.8-7.8-57.8-9.4-74.5-3.7-38.9-3.7-39.6-2.5-98.3 1.1-50.2 1-61.8-.4-94.7-1.9-42.8-5.8-88.6-8.7-100.7-2.5-10.6-5.9-17.2-11-21.6-5.9-5-14.7-6.1-23.2-2.8z"/></svg>