<?xml version="1.0" standalone="no"?>
<!DOCTYPE svg PUBLIC "-//W3C//DTD SVG 20010904//EN"
 "http://www.w3.org/TR/2001/REC-SVG-20010904/DTD/svg10.dtd">
<svg version="1.0" xmlns="http://www.w3.org/2000/svg"
 width="889.000000pt" height="889.000000pt" viewBox="0 0 889.000000 889.000000"
 preserveAspectRatio="xMidYMid meet">
<metadata>
Created by potrace 1.14, written by Peter Selinger 2001-2017
</metadata>
<g transform="translate(0.000000,889.000000) scale(0.100000,-0.100000)"
fill="#000000" stroke="none">
<path d="M5108 8831 c-72 -28 -212 -107 -257 -145 -85 -71 -165 -194 -226
-345 -45 -114 -147 -512 -219 -861 -126 -607 -178 -817 -321 -1305 -166 -563
-215 -810 -255 -1295 -11 -129 -25 -278 -30 -330 -9 -90 -29 -349 -65 -840
-23 -319 -28 -336 -156 -602 -160 -333 -216 -498 -240 -700 -6 -58 -14 -111
-18 -116 -4 -6 -331 36 -846 108 -462 65 -1184 166 -1605 224 -421 59 -775
109 -787 111 -38 9 -75 -33 -80 -92 -8 -76 7 -86 153 -106 215 -29 3109 -447
3131 -452 21 -5 21 -8 26 -277 2 -150 9 -289 15 -308 5 -19 20 -78 32 -130 28
-117 63 -207 146 -375 185 -369 414 -680 605 -820 161 -118 283 -138 579 -95
117 17 494 120 552 151 150 80 331 227 431 352 149 185 319 505 391 736 29 92
76 283 76 309 1 47 -21 49 826 -73 1874 -271 1884 -272 1894 -260 17 21 36
174 24 193 -9 13 -66 25 -275 54 -350 50 -2172 305 -2320 325 l-116 15 -17
252 c-23 328 -59 514 -156 810 -39 119 -80 262 -91 318 -31 162 -159 986 -200
1288 -5 41 -27 201 -49 355 -61 438 -78 578 -94 745 -37 389 -37 396 -25 983
11 502 10 618 -4 947 -19 428 -58 886 -87 1007 -25 106 -59 172 -110 216 -59
50 -147 61 -232 28z"/>
</g>
</svg>
